<?xml version="1.0" encoding="utf-8"?>
<!-- Svg Vector Icons : http://www.onlinewebfonts.com/icon -->
<!DOCTYPE svg PUBLIC "-//W3C//DTD SVG 1.1//EN" "http://www.w3.org/Graphics/SVG/1.1/DTD/svg11.dtd">
<svg version="1.1" xmlns="http://www.w3.org/2000/svg" xmlns:xlink="http://www.w3.org/1999/xlink" x="0px" y="0px" viewBox="0 0 1000 1000" enable-background="new 0 0 1000 1000" xml:space="preserve">
<metadata> Svg Vector Icons : http://www.onlinewebfonts.com/icon </metadata>
<g><path d="M500,10C229.4,10,10,229.4,10,500s219.4,490,490,490s490-219.4,490-490S770.6,10,500,10z M469.4,193.7h61.3c16.9,0,30.6,13.7,30.6,30.6c0,16.9-13.7,30.6-30.6,30.6h-61.3c-16.9,0-30.6-13.7-30.6-30.6C438.7,207.5,452.5,193.7,469.4,193.7z M670.7,565.7L527.8,730c-15.8,18.1-41.4,18.1-57.1,0L327.9,565.7c-9.4-10.8-13.2-25.6-11.4-39.6c1.9-14.9,14.7-26.1,29.7-26.1h92.5V346.9c0-16.9,13.7-30.6,30.6-30.6h61.2c16.9,0,30.6,13.7,30.6,30.6V500h91.1c15,0,27.8,11.2,29.7,26.1C683.8,540.1,680,554.9,670.7,565.7z"/></g>
</svg>