<?xml version="1.0" encoding="utf-8"?>
<!-- Svg Vector Icons : http://www.onlinewebfonts.com/icon -->
<!DOCTYPE svg PUBLIC "-//W3C//DTD SVG 1.1//EN" "http://www.w3.org/Graphics/SVG/1.1/DTD/svg11.dtd">
<svg version="1.1" xmlns="http://www.w3.org/2000/svg" xmlns:xlink="http://www.w3.org/1999/xlink" x="0px" y="0px" viewBox="0 0 1000 1000" enable-background="new 0 0 1000 1000" xml:space="preserve">
<metadata> Svg Vector Icons : http://www.onlinewebfonts.com/icon </metadata>
<g><path d="M469.4,255h61.3c16.9,0,30.6-13.7,30.6-30.6c0-16.9-13.7-30.6-30.6-30.6h-61.3c-16.9,0-30.6,13.7-30.6,30.6C438.7,241.3,452.5,255,469.4,255L469.4,255z M500,990c270.6,0,490-219.4,490-490S770.6,10,500,10S10,229.4,10,500C10,770.6,229.4,990,500,990L500,990z M500,42.7c252.6,0,457.3,204.8,457.3,457.3c0,252.6-204.8,457.3-457.3,457.3C247.4,957.3,42.7,752.6,42.7,500C42.7,247.4,247.4,42.7,500,42.7L500,42.7z M470.7,729.9c15.8,18.1,41.4,18.1,57.1,0l142.8-164.2c9.4-10.8,13.2-25.6,11.4-39.6c-1.9-14.9-14.7-26.1-29.7-26.1h-91.1V346.9c0-16.9-13.7-30.6-30.6-30.6h-61.2c-16.9,0-30.6,13.7-30.6,30.6V500h-92.5c-15,0-27.8,11.2-29.7,26.1c-1.8,14,2,28.8,11.4,39.6L470.7,729.9L470.7,729.9z"/></g>
</svg>