<?xml version="1.0" encoding="utf-8"?>
<!-- Svg Vector Icons : http://www.onlinewebfonts.com/icon -->
<!DOCTYPE svg PUBLIC "-//W3C//DTD SVG 1.1//EN" "http://www.w3.org/Graphics/SVG/1.1/DTD/svg11.dtd">
<svg version="1.1" xmlns="http://www.w3.org/2000/svg" xmlns:xlink="http://www.w3.org/1999/xlink" x="0px" y="0px" viewBox="0 0 1000 1000" enable-background="new 0 0 1000 1000" xml:space="preserve">
<metadata> Svg Vector Icons : http://www.onlinewebfonts.com/icon </metadata>
<g><path d="M500,10C229.4,10,10,229.4,10,500s219.4,490,490,490s490-219.4,490-490S770.6,10,500,10L500,10L500,10z M451.8,681.7c-36.8,36.8-96.7,36.8-133.4,0c-36.8-36.8-36.8-96.7,0-133.4l94.5-94.5c36.8-36.8,96.7-36.8,133.4,0c1,1,2,2,2.8,3.1c0.5,0.4,1.1,1,1.6,1.4c1.5,1.5,2.7,3.2,3.7,4.9c0.1,0.1,0.2,0.3,0.3,0.4c0,0,0,0-0.1,0.1c4.5,8.5,3.2,19.4-4,26.6c-7.2,7.2-18.2,8.5-26.8,3.9c-0.5,0.7-6.6-5.2-9.6-8.4l0,0c-19.2-19.2-50.2-19.4-69.5-0.1L350,580.4c-19.3,19.3-19.3,50.4,0,69.6l0,0c19.2,19.3,50.4,19.3,69.6,0l57-57c19.8,9.7,43.1,10.1,63,0.9L451.8,681.7L451.8,681.7L451.8,681.7z M681.7,451.8l-94.5,94.5c-36.8,36.8-96.7,36.8-133.4,0c-1-1-2-2-2.8-3.1c-0.5-0.4-1.1-1-1.6-1.4c-1.5-1.5-2.7-3.2-3.7-4.9c-0.1-0.1-0.2-0.3-0.3-0.4c0,0,0,0,0.1-0.1c-4.5-8.5-3.2-19.4,4-26.6c7.2-7.2,18.2-8.5,26.8-3.9c0.5-0.7,6.6,5.3,9.6,8.4l0,0c19.3,19.3,50.2,19.4,69.5,0.1l94.7-94.7c19.3-19.2,19.3-50.4,0-69.6l0,0c-19.3-19.3-50.4-19.3-69.6,0l-57,57c-19.7-9.6-43.1-10.1-63-0.9l88-88c36.8-36.8,96.7-36.8,133.4,0C718.5,355.1,718.5,415,681.7,451.8L681.7,451.8L681.7,451.8z"/></g>
</svg>