<?xml version="1.0" encoding="utf-8"?>
<!-- Svg Vector Icons : http://www.onlinewebfonts.com/icon -->
<!DOCTYPE svg PUBLIC "-//W3C//DTD SVG 1.1//EN" "http://www.w3.org/Graphics/SVG/1.1/DTD/svg11.dtd">
<svg version="1.1" xmlns="http://www.w3.org/2000/svg" xmlns:xlink="http://www.w3.org/1999/xlink" x="0px" y="0px" viewBox="0 0 1000 1000" enable-background="new 0 0 1000 1000" xml:space="preserve">
<metadata> Svg Vector Icons : http://www.onlinewebfonts.com/icon </metadata>
<g><path d="M500,10C229.4,10,10,229.4,10,500s219.4,490,490,490s490-219.4,490-490S770.6,10,500,10z M500,966.7C242.6,966.7,33.3,757.4,33.3,500S242.6,33.3,500,33.3S966.7,242.6,966.7,500S757.4,966.7,500,966.7z M476.5,593.4l-57.2,57.2c-19.3,19.4-50.5,19.4-69.8,0c-19.4-19.3-19.4-50.5,0-69.8l95-95c19.4-19.4,50.4-19.2,69.7,0.1c3.1,3.2,9.1,9.1,9.6,8.4c8.6,4.6,19.7,3.3,26.9-3.9c7.2-7.2,8.5-18.2,4-26.7c0.1-0.1,0.1-0.1,0.1-0.1c-0.1-0.1-0.2-0.3-0.3-0.4c-1-1.8-2.2-3.4-3.7-4.9c-0.5-0.4-1.1-1-1.6-1.4c-0.9-1.1-1.9-2.1-2.8-3.1c-36.9-36.9-97-36.9-133.9,0l-94.8,94.8c-36.9,36.9-36.9,97,0,133.9c36.9,36.9,97,36.9,133.9,0l88.2-88.2C519.7,603.5,496.3,603.1,476.5,593.4z M548.6,317.6l-88.4,88.4c20-9.2,43.4-8.8,63.2,0.9l57.2-57.2c19.3-19.4,50.5-19.4,69.8,0c19.4,19.3,19.4,50.5,0,69.8l-95,95c-19.4,19.4-50.4,19.3-69.7-0.1c-3.1-3.2-9.1-9.1-9.6-8.4c-8.6-4.6-19.7-3.3-26.9,3.9s-8.5,18.2-4,26.7c-0.1,0.1-0.1,0.1-0.1,0.1c0.1,0.1,0.2,0.3,0.3,0.4c1,1.8,2.2,3.4,3.7,4.9c0.5,0.4,1.1,1,1.6,1.4c0.9,1.1,1.9,2.1,2.8,3.1c36.9,36.9,97,36.9,133.9,0l94.8-94.8c37-36.9,37-97,0.2-134.1C645.6,280.7,585.4,280.7,548.6,317.6z"/></g>
</svg>